<?xml version="1.0" standalone="no"?><!DOCTYPE svg PUBLIC "-//W3C//DTD SVG 1.1//EN" "http://www.w3.org/Graphics/SVG/1.1/DTD/svg11.dtd"><svg t="1670573552101" class="icon" viewBox="0 0 1024 1024" version="1.1" xmlns="http://www.w3.org/2000/svg" p-id="4012" xmlns:xlink="http://www.w3.org/1999/xlink" width="200" height="200"><path d="M416 795.392c31.978667 6.08 63.573333 16.746667 94.698667 31.936 28.949333-16.256 61.44-27.242667 97.301333-33.066667V320h-192v475.392z m-64-6.058667V320H192v498.581333C251.370667 799.146667 304.64 789.333333 352 789.333333zM128.341333 859.264A45.226667 45.226667 0 0 1 128 853.333333V320a64 64 0 0 1 64-64h640a64 64 0 0 1 64 64v533.333333c0 2.261333-0.106667 4.224-0.341333 5.952a32 32 0 0 1-44.586667 33.984C790.741333 866.56 731.136 853.333333 671.978667 853.333333c-57.749333 0-104.96 12.586667-142.336 37.333334a32 32 0 0 1-32.938667 1.450666C448.938667 866.154667 400.810667 853.333333 352 853.333333c-49.92 0-110.165333 13.397333-180.48 40.533334a32 32 0 0 1-43.178667-34.602667zM832 817.024V320h-160v469.333333c53.333333 0 106.666667 9.258667 160 27.690667zM160 128h704a32 32 0 0 1 0 64h-704a32 32 0 0 1 0-64z" p-id="4013"></path></svg>