<?xml version="1.0" standalone="no"?><!DOCTYPE svg PUBLIC "-//W3C//DTD SVG 1.1//EN" "http://www.w3.org/Graphics/SVG/1.1/DTD/svg11.dtd"><svg t="1670573538344" class="icon" viewBox="0 0 1024 1024" version="1.1" xmlns="http://www.w3.org/2000/svg" p-id="3797" xmlns:xlink="http://www.w3.org/1999/xlink" width="200" height="200"><path d="M148.626286 162.084571h726.747428a21.942857 21.942857 0 0 0 0-43.885714H148.626286a21.942857 21.942857 0 0 0 0 43.885714zM126.683429 276.772571v577.828572a51.2 51.2 0 0 0 51.2 51.2h178.468571L266.24 592.018286c33.645714-35.401143 141.897143-163.547429 141.897143-344.502857v-21.942858H177.883429a51.2 51.2 0 0 0-51.2 51.2z m171.446857 585.142858h-120.246857a7.314286 7.314286 0 0 1-7.314286-7.314286V607.670857h54.418286z m-65.682286-298.130286h-61.878857V276.772571a7.314286 7.314286 0 0 1 7.314286-7.314285h185.636571c-8.484571 155.940571-105.910857 267.849143-131.072 294.326857zM846.116571 225.572571H615.862857v21.942858c0 180.955429 108.251429 309.101714 141.897143 344.502857l-90.112 313.782857h178.468571a51.2 51.2 0 0 0 51.2-51.2v-577.828572a51.2 51.2 0 0 0-51.2-51.2z m-185.636571 43.885715h185.636571a7.314286 7.314286 0 0 1 7.314286 7.314285v287.012572h-61.878857c-25.161143-26.477714-122.587429-138.386286-131.072-294.326857z m185.636571 592.457143h-120.100571l73.142857-254.244572h54.418286v246.930286a7.314286 7.314286 0 0 1-7.460572 7.314286z" p-id="3798" fill="#8a8a8a"></path></svg>